<svg data-v-fde0c5aa="" xmlns="http://www.w3.org/2000/svg" viewBox="0 0 300 300" class="iconLeft"><!----><defs data-v-fde0c5aa=""><!----></defs><rect data-v-fde0c5aa="" fill="#411640" x="0" y="0" width="300px" height="300px" class="logo-background-square"></rect><defs data-v-fde0c5aa=""><!----></defs><g data-v-fde0c5aa="" id="4ad99e88-9db7-4cdb-9bc6-5b933bfb5024" fill="#FFFFFF" transform="matrix(2.556290439570389,0,0,2.556290439570389,91.43820133576777,128.79557152293484)"><path d="M6.99 10.22C4.34 10.22 3.18 8.37 3.18 6.82C3.18 5.28 4.34 3.43 6.99 3.43C8.33 3.43 9.25 4.14 9.25 4.14L10.37 1.90C10.37 1.90 9.09 0.84 6.58 0.84C3.30 0.84 0.32 3.53 0.32 6.85C0.32 10.15 3.32 12.81 6.58 12.81C9.09 12.81 10.37 11.75 10.37 11.75L9.25 9.51C9.25 9.51 8.33 10.22 6.99 10.22ZM11.38 12.60L13.86 12.60L13.86 8.82C13.86 8.64 14.04 7.36 15.33 7.36C16.16 7.36 16.62 7.76 16.62 7.76L17.65 5.66C17.65 5.66 17.01 5.21 16.09 5.21C14.67 5.21 13.89 6.45 13.89 6.45L13.86 6.45L13.86 5.42L11.38 5.42ZM19.63 0.98C18.82 0.98 18.16 1.64 18.16 2.45C18.16 3.26 18.82 3.92 19.63 3.92C20.44 3.92 21.10 3.26 21.10 2.45C21.10 1.64 20.44 0.98 19.63 0.98ZM18.35 5.42L20.83 5.42L20.83 12.60L18.35 12.60ZM25.70 5.21C23.81 5.21 22.57 6.05 22.57 7.52C22.57 8.60 23.30 9.10 24.02 9.48C24.84 9.90 25.62 9.94 25.62 10.46C25.62 10.93 25.20 10.98 24.85 10.98C24.05 10.98 23.07 10.15 23.07 10.15L22.06 11.84C22.06 11.84 23.10 12.81 24.84 12.81C26.31 12.81 28.24 12.47 28.24 10.36C28.24 8.89 27.01 8.36 26.05 8.06C25.44 7.87 24.93 7.76 24.93 7.38C24.93 7.04 25.16 6.94 25.70 6.94C26.46 6.94 27.30 7.39 27.30 7.39L28.11 5.77C28.11 5.77 27.09 5.21 25.70 5.21ZM37.87 9.00C37.87 6.90 36.40 5.21 34.30 5.21C33.32 5.21 32.48 5.64 31.95 6.23L31.92 6.23L31.92 5.42L29.47 5.42L29.47 16.24L31.95 16.24L31.95 11.91C32.54 12.49 33.33 12.81 34.30 12.81C36.40 12.81 37.87 11.10 37.87 9.00ZM35.24 9.00C35.24 10.00 34.50 10.70 33.56 10.70C32.63 10.70 31.89 10.00 31.89 9.00C31.89 8.02 32.59 7.32 33.56 7.32C34.57 7.32 35.24 8.02 35.24 9.00ZM41.66 1.05L39.03 1.05L39.03 12.60L41.66 12.60ZM43.34 12.60L45.82 12.60L45.82 8.54C45.82 7.83 46.55 7.14 47.29 7.14C48.09 7.14 48.58 7.83 48.58 8.54L48.58 12.60L51.06 12.60L51.06 7.87C51.06 5.87 49.22 5.21 47.91 5.21C47.12 5.21 46.41 5.61 45.85 6.17L45.82 6.17L45.82 5.42L43.34 5.42ZM53.02 5.42L51.98 5.42L51.98 7.31L53.02 7.31L53.02 12.60L55.50 12.60L55.50 7.31L57.15 7.31L57.15 5.42L55.50 5.42L55.50 3.96C55.50 2.97 55.64 2.55 56.27 2.55C56.67 2.55 57.01 2.74 57.01 2.74L57.88 0.99C57.88 0.99 57.09 0.35 55.83 0.35C54.04 0.35 53.03 1.79 53.02 3.89ZM57.33 9.02C57.33 11.23 59.07 12.81 61.66 12.81C64.13 12.81 65.94 11.23 65.94 9.02C65.94 6.78 64.04 5.21 61.66 5.21C59.23 5.21 57.33 6.78 57.33 9.02ZM59.96 9.02C59.96 8.02 60.70 7.32 61.64 7.32C62.57 7.32 63.31 8.02 63.31 9.02C63.31 10.00 62.61 10.70 61.64 10.70C60.63 10.70 59.96 10.00 59.96 9.02Z"></path></g><defs data-v-fde0c5aa=""><!----></defs><g data-v-fde0c5aa="" id="4854c0e8-9e0b-43bc-9229-9598a54efd70" stroke="none" fill="#DCB933" transform="matrix(0.13018798389134556,0,0,0.13018798389134556,26.30008460304059,116.67218502627365)"><path d="M398.468 111.59c11.413 11.872 11.003 30.76-.915 42.125l-102.628 97.867c11.72-11.067 31.111-10.531 42.345 1.534 10.249 11.007 9.032 27.8-1.852 38.078l-13.958 13.181c13.597-12.84 37.521-10.062 47.051 8.219 6.614 12.688 3.289 27.968-7.222 37.893l-15.229 14.381c11.269-10.642 29.632-10.555 41.015.194l.036.034c12.41 11.719 12.494 30.64.188 42.261l-57.288 54.099c-40.546 38.289-106.562 38.027-147.45-.585l-46.478-43.89c-31.926-30.148-39.961-76.066-19.935-113.92 14.778-26.84 18.821-53.56 13.355-83.586-1.885-9.566 1.297-19.336 8.519-26.156 17.338-16.373 47.232-8.084 52.901 14.668l9 51.945 10.469-9.886L356.511 110.68c11.85-11.302 30.608-10.895 41.957.91zM208.36 102.426l.554-80.433 28.992.2-.555 80.433zM252.742 107.315l51.885-51.827 20.49 20.513-51.886 51.826zM120.784 78.162l20.443-20.559 51.207 50.917-20.443 20.56z"></path></g><!----></svg>